<svg width="56" height="57" viewBox="0 0 56 57" fill="none" xmlns="http://www.w3.org/2000/svg">
<rect y="0.5" width="56" height="56" rx="28" fill="#3BB44A"/>
<path d="M41.3343 27.9267C40.529 26.768 39.5263 25.3267 39.5263 24.1534C39.5263 23.228 39.2477 21.9014 39.049 21.2534C37.6903 16.828 33.485 14.3694 27.1983 14.3334C18.5437 14.3854 13.4903 19.336 13.333 27.9427C13.425 33.2987 16.1943 36.168 18.2663 37.86C19.145 38.5774 19.6943 39.5094 19.813 40.4854C19.997 41.9974 20.2277 42.568 20.253 42.628C20.3383 42.8294 20.517 42.976 20.7317 43.02C20.8597 43.0467 23.8943 43.6654 26.8063 43.6654C29.6557 43.6654 32.6743 43.0454 32.8023 43.02C32.925 42.9947 33.037 42.936 33.1277 42.8494C33.321 42.664 33.7543 42.048 33.9103 40.1654C37.2237 40.1 40.4143 39.4427 40.4143 35.9094V33.2374C41.0183 32.8667 42.1863 32.0534 42.5757 31.08C42.9237 30.2107 42.2223 29.2027 41.3343 27.9267ZM41.3343 30.5974C41.0797 31.2067 40.0357 31.9427 39.433 32.2654C39.217 32.3814 39.081 32.608 39.081 32.8534V35.9107C39.081 37.668 38.0957 38.8387 33.2823 38.8387C32.925 38.8387 32.6317 39.12 32.6157 39.4774C32.557 40.8667 32.3517 41.524 32.2543 41.7694C31.4503 41.92 29.0357 42.3334 26.8063 42.3334C24.6197 42.3334 22.2903 41.952 21.389 41.788C21.3197 41.5107 21.225 41.0427 21.137 40.324C20.977 39.0054 20.2583 37.7627 19.1103 36.8267C17.0837 35.1734 14.749 32.6667 14.6663 27.9427C14.861 17.3254 22.6063 15.6947 27.197 15.6667C30.4677 15.6854 36.1903 16.488 37.773 21.644C37.9757 22.304 38.1917 23.4707 38.1917 24.1534C38.1917 25.7454 39.3277 27.376 40.2397 28.688C40.685 29.328 41.357 30.292 41.3343 30.5974Z" fill="#FDFDFD"/>
<path d="M31.5003 25.4667C33.0269 25.4667 34.2669 24.2254 34.2669 22.7C34.2669 21.1747 33.0256 19.9333 31.5003 19.9333C29.9749 19.9333 28.7336 21.1747 28.7336 22.7C28.7336 22.8374 28.7443 22.9734 28.7629 23.1054C28.3163 22.9333 27.8163 22.82 27.2669 22.768V20.6014C27.2669 20.2334 26.9683 19.9347 26.6003 19.9347C26.2323 19.9347 25.9336 20.2334 25.9336 20.6014V22.768C25.3829 22.82 24.8843 22.9333 24.4363 23.1054C24.4563 22.9734 24.4656 22.8387 24.4656 22.7013C24.4656 21.176 23.2243 19.9347 21.6989 19.9347C20.1736 19.9347 18.9336 21.176 18.9336 22.7013C18.9336 24.2267 20.1749 25.468 21.6989 25.468C21.8403 25.468 21.9803 25.4573 22.1163 25.436C21.9443 25.884 21.8283 26.384 21.7723 26.9347H19.6003C19.2323 26.9347 18.9336 27.2334 18.9336 27.6014C18.9336 27.9694 19.2323 28.268 19.6003 28.268H21.7709C21.8256 28.82 21.9363 29.3187 22.1016 29.764C21.9696 29.7453 21.8349 29.7347 21.6989 29.7347C20.1736 29.7347 18.9336 30.976 18.9336 32.5014C18.9336 34.0267 20.1749 35.268 21.6989 35.268C23.2229 35.268 24.4656 34.0267 24.4656 32.5014C24.4656 32.3694 24.4563 32.2387 24.4376 32.1107C24.8829 32.2774 25.3816 32.3854 25.9336 32.4347V34.6C25.9336 34.968 26.2323 35.2667 26.6003 35.2667C26.9683 35.2667 27.2669 34.968 27.2669 34.6V32.4347C27.8176 32.3854 28.3163 32.2774 28.7616 32.1107C28.7443 32.2374 28.7336 32.368 28.7336 32.5C28.7336 34.0254 29.9749 35.2667 31.5003 35.2667C33.0256 35.2667 34.2669 34.0254 34.2669 32.5C34.2669 30.9747 33.0256 29.7334 31.5003 29.7334C31.3616 29.7334 31.2269 29.744 31.0936 29.764C31.2603 29.3187 31.3709 28.82 31.4256 28.268H33.6003C33.9683 28.268 34.2669 27.9694 34.2669 27.6014C34.2669 27.2334 33.9683 26.9347 33.6003 26.9347H31.4269C31.3709 26.384 31.2563 25.884 31.0843 25.436C31.2203 25.456 31.3589 25.4667 31.5003 25.4667ZM31.5003 21.2667C32.2909 21.2667 32.9336 21.9094 32.9336 22.7C32.9336 23.4907 32.2909 24.1334 31.5003 24.1334C30.7096 24.1334 30.0669 23.4907 30.0669 22.7C30.0669 21.9094 30.7096 21.2667 31.5003 21.2667ZM26.6043 31.1334C24.2069 31.12 23.1149 30.0294 23.0669 27.6C23.1136 25.204 24.2389 24.0814 26.5963 24.0667C28.9349 24.0827 30.0923 25.2414 30.1323 27.5894C30.0883 30.0267 28.9976 31.1187 26.6043 31.1334ZM20.2669 22.7C20.2669 21.9094 20.9083 21.2667 21.6989 21.2667C22.4896 21.2667 23.1323 21.9094 23.1323 22.7C23.1323 23.4907 22.4896 24.1334 21.6989 24.1334C20.9083 24.1334 20.2669 23.4907 20.2669 22.7ZM21.6989 33.9333C20.9083 33.9333 20.2669 33.2907 20.2669 32.5C20.2669 31.7094 20.9083 31.0667 21.6989 31.0667C22.4896 31.0667 23.1323 31.7094 23.1323 32.5C23.1323 33.2907 22.4896 33.9333 21.6989 33.9333ZM32.9336 32.5C32.9336 33.2907 32.2909 33.9333 31.5003 33.9333C30.7096 33.9333 30.0669 33.2907 30.0669 32.5C30.0669 31.7094 30.7096 31.0667 31.5003 31.0667C32.2909 31.0667 32.9336 31.7094 32.9336 32.5Z" fill="#FDFDFD"/>
</svg>
