<svg width="56" height="57" viewBox="0 0 56 57" fill="none" xmlns="http://www.w3.org/2000/svg">
<rect y="0.5" width="56" height="56" rx="28" fill="#3BB44A"/>
<g clip-path="url(#clip0_184_2962)">
<path d="M26.351 28.4787L18.667 33.3333L22.667 35.86V42.06C22.667 42.06 24.191 44 28.0003 44C31.8097 44 33.3337 42.06 33.3337 42.06V35.86L34.667 35.0173V41.332H37.3337V33.332L29.6497 28.4773C28.6603 27.8507 27.339 27.8507 26.351 28.4773V28.4787ZM30.667 40.7733C30.1483 41.0427 29.2883 41.3333 28.0003 41.3333C26.6683 41.3333 25.7937 41.0213 25.2803 40.7453L25.291 37.5187L26.3497 38.188C26.8443 38.5013 27.415 38.6667 27.999 38.6667C28.583 38.6667 29.1537 38.5013 29.647 38.1893L30.6657 37.5467V40.7747L30.667 40.7733ZM28.2243 35.9347C28.0857 36.02 27.915 36.0213 27.7763 35.9347L23.6603 33.3347L27.7777 30.7333C27.9163 30.648 28.087 30.6467 28.2257 30.7333L32.3417 33.3333L28.2243 35.9347Z" fill="#FDFDFD"/>
<path d="M40 12H16C13.7947 12 12 13.7947 12 16V41.3333H20V38.6667H14.6667V24H41.3333V38.6667H40V41.3333H44V16C44 13.7947 42.2053 12 40 12ZM41.3333 21.3333H14.6667V16C14.6667 15.2653 15.2653 14.6667 16 14.6667H40C40.736 14.6667 41.3333 15.2653 41.3333 16V21.3333Z" fill="#FDFDFD"/>
<path d="M18 20C19.1046 20 20 19.1046 20 18C20 16.8954 19.1046 16 18 16C16.8954 16 16 16.8954 16 18C16 19.1046 16.8954 20 18 20Z" fill="#FDFDFD"/>
<path d="M23.333 20C24.4376 20 25.333 19.1046 25.333 18C25.333 16.8954 24.4376 16 23.333 16C22.2284 16 21.333 16.8954 21.333 18C21.333 19.1046 22.2284 20 23.333 20Z" fill="#FDFDFD"/>
</g>
<defs>
<clipPath id="clip0_184_2962">
<rect width="32" height="32" fill="white" transform="translate(12 12)"/>
</clipPath>
</defs>
</svg>
