<svg width="56" height="57" viewBox="0 0 56 57" fill="none" xmlns="http://www.w3.org/2000/svg">
<rect y="0.5" width="56" height="56" rx="28" fill="#3BB44A"/>
<g clip-path="url(#clip0_184_2972)">
<path d="M30.6667 19.0533C29.8267 18.8 28.92 18.6667 28 18.6667C22.8533 18.6667 18.6667 22.8533 18.6667 28C18.6667 33.1467 22.8533 37.3333 28 37.3333C33.1467 37.3333 37.3333 33.1467 37.3333 28C37.3333 27.08 37.2 26.1733 36.9467 25.3333H38.3333C38.56 26.1867 38.6667 27.08 38.6667 28C38.6667 33.88 33.88 38.6667 28 38.6667C22.12 38.6667 17.3333 33.88 17.3333 28C17.3333 22.12 22.12 17.3333 28 17.3333C28.92 17.3333 29.8133 17.4533 30.6667 17.6667V19.0533ZM27.2 24.08L28.5867 22.6933C28.4 22.6667 28.2 22.6667 28 22.6667C25.0533 22.6667 22.6667 25.0533 22.6667 28C22.6667 30.9467 25.0533 33.3333 28 33.3333C30.9467 33.3333 33.3333 30.9467 33.3333 28C33.3333 27.8 33.3333 27.6 33.3067 27.4133L31.92 28.8C31.5467 30.6267 29.9333 32 28 32C25.8 32 24 30.2 24 28C24 26.0667 25.3733 24.4533 27.2 24.08ZM42.0933 23.96C42.4667 25.24 42.6667 26.6 42.6667 28C42.6667 36.0933 36.0933 42.6667 28 42.6667C19.9067 42.6667 13.3333 36.0933 13.3333 28C13.3333 19.9067 19.9067 13.3333 28 13.3333C29.4 13.3333 30.76 13.5333 32.04 13.9067L33.0933 12.84C31.4933 12.2933 29.7733 12 27.9867 12C19.1733 12 12 19.1733 12 28C12 36.8267 19.1733 44 28 44C36.8267 44 44 36.8267 44 28C44 26.2133 43.7067 24.5067 43.1733 22.9067L42.1067 23.96H42.0933ZM44 17.3333V18.28L39.6133 22.6667H34.28L28.48 28.4667L27.5333 27.52L33.3333 21.72V16.3867L37.6667 12H38.6667V17.3333H44ZM41.7733 18.6667H37.3333V14.24L34.6667 16.9467V21.3333H39.0533L41.76 18.6667H41.7733Z" fill="#FDFDFD"/>
</g>
<defs>
<clipPath id="clip0_184_2972">
<rect width="32" height="32" fill="white" transform="translate(12 12)"/>
</clipPath>
</defs>
</svg>
