<svg width="56" height="57" viewBox="0 0 56 57" fill="none" xmlns="http://www.w3.org/2000/svg">
<rect y="0.5" width="56" height="56" rx="28" fill="#3BB44A"/>
<g clip-path="url(#clip0_184_2979)">
<path d="M34 21.6307V18.3707C34 17.5813 34.848 17.0827 35.5373 17.4653L38.472 19.096C39.1813 19.4907 39.1813 20.5107 38.472 20.9053L35.5373 22.536C34.848 22.9187 34 22.42 34 21.6307ZM28 20C28 15.588 31.588 12 36 12C40.412 12 44 15.588 44 20C44 24.412 40.412 28 36 28C31.588 28 28 24.412 28 20ZM30.6667 20C30.6667 22.9413 33.0587 25.3333 36 25.3333C38.9413 25.3333 41.3333 22.9413 41.3333 20C41.3333 17.0587 38.9413 14.6667 36 14.6667C33.0587 14.6667 30.6667 17.0587 30.6667 20ZM26 23.3333C26 21.492 24.508 20 22.6667 20C20.8253 20 19.3333 21.492 19.3333 23.3333C19.3333 25.1747 20.8253 26.6667 22.6667 26.6667C24.508 26.6667 26 25.1747 26 23.3333ZM42.6667 28C41.9293 28 41.3333 28.5973 41.3333 29.3333V32C41.3333 34.2053 39.5387 36 37.3333 36H18.6667C16.4613 36 14.6667 34.2053 14.6667 32V21.3333C14.6667 19.128 16.4613 17.3333 18.6667 17.3333H25.3333C26.0707 17.3333 26.6667 16.736 26.6667 16C26.6667 15.264 26.0707 14.6667 25.3333 14.6667H18.6667C14.9907 14.6667 12 17.6573 12 21.3333V32C12 35.676 14.9907 38.6667 18.6667 38.6667H26.6667V41.3333H21.3333C20.596 41.3333 20 41.9293 20 42.6667C20 43.404 20.596 44 21.3333 44H34.6667C35.404 44 36 43.404 36 42.6667C36 41.9293 35.404 41.3333 34.6667 41.3333H29.3333V38.6667H37.3333C41.0093 38.6667 44 35.676 44 32V29.3333C44 28.5973 43.404 28 42.6667 28ZM22.6667 28C20.3187 28 18.2093 29.4187 17.4173 31.532C17.16 32.2213 17.508 32.9893 18.1987 33.248C18.8827 33.5027 19.656 33.1587 19.9147 32.4667C20.3187 31.3893 21.424 30.6653 22.6653 30.6653C23.9067 30.6653 25.0133 31.3893 25.416 32.4667C25.6733 33.164 26.46 33.504 27.132 33.248C27.8227 32.9893 28.1707 32.22 27.9133 31.532C27.1213 29.4187 25.012 28 22.664 28H22.6667Z" fill="#FDFDFD"/>
</g>
<defs>
<clipPath id="clip0_184_2979">
<rect width="32" height="32" fill="white" transform="translate(12 12)"/>
</clipPath>
</defs>
</svg>
