<svg width="56" height="57" viewBox="0 0 56 57" fill="none" xmlns="http://www.w3.org/2000/svg">
<rect y="0.5" width="56" height="56" rx="28" fill="#3BB44A"/>
<g clip-path="url(#clip0_184_2986)">
<path d="M28.0004 27.6667C29.8417 27.6667 31.3337 29.1587 31.3337 31C31.3337 32.8414 29.8417 34.3334 28.0004 34.3334C26.159 34.3334 24.667 32.8414 24.667 31C24.667 29.1587 26.159 27.6667 28.0004 27.6667ZM41.571 29.98L39.763 28.0201L31.479 35.6667H24.5217L16.2377 28.0201L14.4297 29.98L22.667 37.5841V45.0001H25.3337V38.3334H30.667V45.0001H33.3337V37.5841L41.571 29.98ZM23.5764 25.9401L24.3777 26.5441L28.0164 23.7307L31.639 26.5321L32.4724 25.9507L30.999 21.4747L34.6657 19.3534V18.3347H29.859L28.5524 13.3347H27.4737L26.1657 18.3347H21.3324V19.3601L25.0244 21.4134L23.5764 25.9414V25.9401Z" fill="#FDFDFD"/>
</g>
<defs>
<clipPath id="clip0_184_2986">
<rect width="32" height="32" fill="white" transform="translate(12 13)"/>
</clipPath>
</defs>
</svg>
