<svg width="65" height="64" viewBox="0 0 65 64" fill="none" xmlns="http://www.w3.org/2000/svg">
<rect x="0.5" width="64" height="64" rx="32" fill="#E1E3E5"/>
<path d="M53.0785 25.4897C53.0785 35.1472 43.7778 42.9772 32.3058 42.9772C20.8339 42.9772 11.5332 35.1472 11.5332 25.4897C11.5332 15.83 20.8339 8 32.3058 8C43.78 8 53.0785 15.83 53.0785 25.4897Z" fill="#242826"/>
<path d="M53.0785 25.4875H11.5332V63.9978H53.0785V25.4875Z" fill="#242826"/>
<path d="M35.1691 51.8427H29.084V59.3203H35.1691V51.8427Z" fill="#FEB6AA"/>
<path d="M35.1691 51.8427V54.5948C33.8464 55.7827 31.8535 56.5377 29.6257 56.5377C29.443 56.5377 29.2624 56.5311 29.084 56.5203V51.8427H35.1691Z" fill="#FFAA01"/>
<path d="M52.1432 32.8867C52.1432 44.7176 40.0447 54.3055 32.4149 54.3055C24.7307 54.3055 12.6865 44.7154 12.6865 32.8867C12.6865 21.0579 16.855 11.4657 32.4149 11.4657C48.7863 11.4657 52.1432 21.0558 52.1432 32.8867Z" fill="#FEB6AA"/>
<path d="M23.4493 30.9721C19.592 31.3529 18.8914 34.3987 20.6907 37.6882C22.4921 40.9799 27.0804 39.3809 27.9354 36.3546C28.7904 33.3283 26.4147 30.6784 23.4493 30.9721Z" fill="#FDFDFD"/>
<path d="M25.8509 34.9535C25.9053 35.9739 25.1221 36.8441 24.1039 36.8985C23.0836 36.9529 22.2133 36.1697 22.1589 35.1515C22.1045 34.1311 22.8877 33.2609 23.9059 33.2065C24.9263 33.1499 25.7965 33.9332 25.8509 34.9535Z" fill="#242826"/>
<path d="M24.1623 34.4162C24.1862 34.8513 23.8512 35.2212 23.416 35.2451C22.9809 35.269 22.6089 34.934 22.5871 34.4989C22.5632 34.0637 22.8983 33.6917 23.3334 33.67C23.7685 33.6482 24.1383 33.9811 24.1623 34.4162Z" fill="#FDFDFD"/>
<path d="M25.2027 36.05C25.2136 36.2458 25.0635 36.4112 24.8677 36.422C24.6719 36.4329 24.5066 36.2828 24.4957 36.087C24.4848 35.8912 24.6349 35.7259 24.8307 35.715C25.0243 35.7041 25.1919 35.8542 25.2027 36.05Z" fill="#FDFDFD"/>
<path d="M42.0048 30.9569C45.8622 31.3377 46.5627 34.3835 44.7635 37.673C42.9621 40.9647 38.3738 39.3656 37.5209 36.3394C36.6637 33.3131 39.0395 30.6632 42.0048 30.9569Z" fill="#FDFDFD"/>
<path d="M39.6033 34.9383C39.5489 35.9587 40.3321 36.8289 41.3503 36.8833C42.3706 36.9377 43.2409 36.1545 43.2953 35.1363C43.3496 34.1159 42.5664 33.2457 41.5482 33.1913C40.5279 33.1347 39.6576 33.918 39.6033 34.9383Z" fill="#242826"/>
<path d="M41.2912 34.4009C41.2673 34.836 41.6024 35.2059 42.0375 35.2298C42.4726 35.2537 42.8446 34.9187 42.8664 34.4858C42.8903 34.0506 42.5553 33.6786 42.1201 33.6569C41.6872 33.6329 41.3152 33.9658 41.2912 34.4009Z" fill="#FDFDFD"/>
<path d="M40.2515 36.0326C40.2407 36.2284 40.3908 36.3938 40.5866 36.4046C40.7802 36.4155 40.9477 36.2654 40.9586 36.0696C40.9695 35.8738 40.8194 35.7084 40.6236 35.6976C40.4299 35.6889 40.2624 35.839 40.2515 36.0326Z" fill="#FDFDFD"/>
<path d="M26.1054 42.2831C26.1054 43.3405 24.9415 44.1977 23.5034 44.1977C22.0675 44.1977 20.9014 43.3405 20.9014 42.2831C20.9014 41.2258 22.0653 40.3686 23.5034 40.3686C24.9415 40.3664 26.1054 41.2258 26.1054 42.2831Z" fill="#FFAA01"/>
<path d="M43.7236 42.2831C43.7236 43.3405 42.5596 44.1977 41.1216 44.1977C39.6857 44.1977 38.5195 43.3405 38.5195 42.2831C38.5195 41.2258 39.6835 40.3686 41.1216 40.3686C42.5575 40.3664 43.7236 41.2258 43.7236 42.2831Z" fill="#FFAA01"/>
<path d="M37.2124 45.3355C35.6851 45.7075 33.9664 45.9142 32.1476 45.9142C30.3092 45.9142 28.5774 45.7032 27.0371 45.3246C28.3751 44.735 30.1569 44.376 32.1128 44.376C34.0817 44.376 35.8722 44.7394 37.2124 45.3355Z" fill="#FFAA01"/>
<path d="M37.2122 45.3355C37.2122 46.3058 36.8597 47.1695 36.318 47.8874C35.2476 49.3146 33.4245 50.174 32.1147 50.174C30.7071 50.174 28.7774 49.319 27.7483 47.6547V47.6525C27.3415 46.9998 27.0782 46.2231 27.0391 45.3246C28.5772 44.3456 30.2981 45.7423 32.1365 45.7423C33.9531 45.7423 35.6871 44.3673 37.2122 45.3355Z" fill="#FFAA01"/>
<path d="M17.5272 38.6651C17.5272 40.5057 15.9542 41.996 14.0136 41.996C12.073 41.996 10.5 40.5035 10.5 38.6651C10.5 36.8246 12.073 35.3343 14.0136 35.3343C15.9542 35.3343 17.5272 36.8246 17.5272 38.6651Z" fill="#FEB6AA"/>
<path d="M13.7571 38.0864C12.8129 37.1966 11.538 38.1038 12.1188 39.3221C12.6976 40.5405 13.4808 40.6906 13.9181 40.3316C14.3554 39.9727 13.1174 39.8835 13.1697 39.2286C13.2219 38.5737 14.4446 38.7347 13.7571 38.0864Z" fill="#FFAA01"/>
<path d="M31.1445 38.4258C30.4875 38.9371 30.4679 41.5587 32.2301 41.6327C33.9924 41.7066 34.645 40.893 34.4971 40.1663C34.3492 39.4397 33.5333 41.637 31.9625 40.323C31.3033 39.7747 32.1192 37.6665 31.1445 38.4258Z" fill="#FFAA01"/>
<path d="M47.5684 38.6651C47.5684 40.5057 49.1413 41.996 51.082 41.996C53.0226 41.996 54.5956 40.5035 54.5956 38.6651C54.5956 36.8246 53.0226 35.3343 51.082 35.3343C49.1413 35.3343 47.5684 36.8246 47.5684 38.6651Z" fill="#FEB6AA"/>
<path d="M51.3387 38.0864C52.2829 37.1966 53.5556 38.1038 52.9769 39.3221C52.3982 40.5405 51.615 40.6906 51.1777 40.3316C50.7404 39.9727 51.9783 39.8835 51.9261 39.2286C51.8739 38.5737 50.6512 38.7347 51.3387 38.0864Z" fill="#FFAA01"/>
<path d="M31.9924 57.4666V63.9978H31.9684V62.1355C28.9879 62.1268 26.425 60.3493 25.2676 57.7995L29.0814 57.2099L31.9793 57.4644L31.9924 57.4666Z" fill="#FEB6AA"/>
<path d="M38.7131 57.8038C37.5535 60.3602 34.982 62.1355 31.9927 62.1355V63.9978H31.9688V57.4666L31.9796 57.4644L34.8775 57.2099L35.1691 57.2556L38.7131 57.8038Z" fill="#FEB6AA"/>
<path d="M48.858 61.9201C48.1227 60.6212 47.0175 59.3572 45.5119 58.8547L38.7132 57.8038C37.5558 60.3536 34.9929 62.1268 32.0123 62.1355H31.9492C28.9774 62.1181 26.421 60.345 25.268 57.7995L18.4475 58.8547C16.9419 59.3572 15.8346 60.6212 15.1014 61.9201C14.6945 62.6424 14.403 63.3777 14.2246 64H31.8927H31.9688H31.9927H32.169H49.737C49.5564 63.3756 49.2649 62.6424 48.858 61.9201Z" fill="#FFAA01"/>
<path d="M23.3752 33.2022C25.4311 32.9977 27.276 34.6773 27.8852 36.4482C27.9026 36.3982 27.92 36.346 27.9352 36.2959C28.7903 33.2697 26.4145 30.6198 23.4491 30.9135C20.2858 31.2268 19.2459 33.3284 19.966 35.8913C20.412 34.6947 21.4715 33.3915 23.3752 33.2022Z" fill="#FFAA01"/>
<path d="M20.0225 35.8912C20.0225 35.8912 20.0333 35.8521 20.0551 35.7759C20.0747 35.7019 20.1095 35.5932 20.1639 35.4561C20.2183 35.3212 20.2879 35.1559 20.388 34.9775C20.488 34.7991 20.6099 34.5989 20.773 34.4031C20.9297 34.2008 21.1277 34.005 21.3583 33.8179C21.5867 33.6286 21.8565 33.4654 22.1524 33.3305C22.4461 33.1935 22.7724 33.0977 23.1053 33.0347L23.3577 32.9977C23.3838 32.9955 23.3881 32.9911 23.4316 32.989L23.4925 32.9868L23.6144 32.9803C23.7732 32.965 23.956 32.9781 24.1365 32.989C24.489 33.0303 24.8284 33.1086 25.1438 33.237C25.468 33.3501 25.7508 33.5307 26.0228 33.7047C26.2838 33.8918 26.5232 34.092 26.7233 34.303C26.8256 34.4075 26.9235 34.5097 27.0061 34.6185C27.0932 34.7229 27.1737 34.8295 27.2433 34.9339C27.3173 35.0362 27.3847 35.1363 27.4391 35.2385C27.4957 35.3386 27.5522 35.4322 27.5957 35.5257C27.6392 35.6193 27.6849 35.7019 27.7176 35.7846C27.748 35.8673 27.7785 35.9434 27.8046 36.0109C27.8612 36.1458 27.8807 36.2611 27.9047 36.335C27.9242 36.409 27.9373 36.4503 27.9373 36.4503C27.9373 36.4503 27.9177 36.4134 27.8829 36.3437C27.8459 36.2763 27.8024 36.1719 27.7263 36.0479C27.6566 35.9217 27.5653 35.7737 27.4521 35.6127C27.3999 35.5279 27.3325 35.4474 27.265 35.3604C27.1998 35.2712 27.1258 35.182 27.0453 35.0906C26.9692 34.997 26.8821 34.9057 26.7886 34.8165C26.6994 34.7207 26.6015 34.6315 26.4971 34.5402C26.2925 34.3552 26.0554 34.1899 25.8096 34.0267C25.555 33.8766 25.2831 33.733 24.9937 33.6329C24.7087 33.522 24.3976 33.4567 24.0952 33.4241C23.9472 33.4132 23.8015 33.3958 23.6318 33.4088L23.5078 33.4132L23.4469 33.4154C23.449 33.4154 23.4142 33.4197 23.4012 33.4219L23.1706 33.4524C22.8681 33.5068 22.5679 33.5698 22.2981 33.6852C22.0284 33.7983 21.7695 33.9223 21.5476 34.0811C21.3256 34.2378 21.1233 34.3988 20.9558 34.5706C20.6142 34.91 20.3858 35.2516 20.2378 35.4953C20.166 35.6193 20.1073 35.7172 20.0747 35.7868C20.0399 35.8542 20.0225 35.8912 20.0225 35.8912Z" fill="#242826"/>
<path d="M41.8073 33.274C39.7513 33.0695 38.1784 34.6794 37.5692 36.4504C37.5518 36.4003 37.5344 36.3481 37.5192 36.2981C36.6641 33.2718 39.0399 30.6219 42.0052 30.9156C45.1686 31.2289 46.2085 33.3305 45.4884 35.8934C45.0424 34.6946 43.7109 33.4611 41.8073 33.274Z" fill="#FFAA01"/>
<path d="M37.2124 45.3355C37.2124 46.3058 33.7597 48.662 32.2868 48.662C30.6007 48.662 27.0784 46.2232 27.0371 45.3246C28.5753 45.7032 30.3092 45.9142 32.1476 45.9142C33.9664 45.9142 35.6873 45.7075 37.2124 45.3355Z" fill="#FDFDFD"/>
<path d="M45.4336 35.8912C45.4336 35.8912 45.414 35.8542 45.3792 35.7868C45.3466 35.7172 45.2878 35.6193 45.2161 35.4953C45.0681 35.2516 44.8397 34.91 44.4981 34.5706C44.3306 34.3988 44.1283 34.2356 43.9063 34.0811C43.6844 33.9245 43.4255 33.8005 43.1558 33.6852C42.8838 33.5698 42.5858 33.5089 42.2833 33.4524L42.0527 33.4219C42.0375 33.4197 42.0027 33.4154 42.007 33.4154L41.9461 33.4132L41.8221 33.4088C41.6524 33.3958 41.5067 33.4132 41.3587 33.4241C41.0563 33.4567 40.7474 33.5198 40.4602 33.6329C40.1687 33.7352 39.8989 33.8766 39.6443 34.0267C39.3985 34.1899 39.1614 34.3552 38.9568 34.5402C38.8546 34.6315 38.7545 34.7207 38.6653 34.8165C38.5718 34.9057 38.4847 34.997 38.4086 35.0906C38.3281 35.1798 38.2541 35.2712 38.1889 35.3604C38.1214 35.4474 38.054 35.5301 38.0018 35.6127C37.8886 35.7759 37.7994 35.9238 37.7276 36.0479C37.6515 36.1697 37.608 36.2741 37.571 36.3437C37.5362 36.4134 37.5166 36.4503 37.5166 36.4503C37.5166 36.4503 37.5275 36.4112 37.5492 36.335C37.5732 36.2611 37.5927 36.1458 37.6493 36.0109C37.6754 35.9434 37.7037 35.8673 37.7363 35.7846C37.769 35.7019 37.8147 35.6193 37.8582 35.5257C37.8995 35.4322 37.9561 35.3386 38.0148 35.2385C38.0692 35.1363 38.1388 35.0362 38.2106 34.9339C38.2802 34.8273 38.3607 34.7229 38.4478 34.6185C38.5304 34.5097 38.6305 34.4075 38.7306 34.303C38.9329 34.0898 39.1701 33.8918 39.4311 33.7047C39.7009 33.5329 39.9859 33.3523 40.3101 33.237C40.6277 33.1086 40.9671 33.0303 41.3174 32.989C41.498 32.9781 41.6807 32.965 41.8395 32.9803L41.9614 32.9868L42.0223 32.989C42.0658 32.9911 42.0701 32.9955 42.0962 32.9977L42.3486 33.0347C42.6837 33.0977 43.0078 33.1913 43.3015 33.3305C43.5952 33.4654 43.8672 33.6286 44.0956 33.8179C44.3262 34.0028 44.5242 34.2008 44.6809 34.4031C44.844 34.5989 44.9659 34.7991 45.0659 34.9775C45.166 35.158 45.2356 35.3212 45.29 35.4561C45.3444 35.5932 45.3771 35.7019 45.3988 35.7759C45.4206 35.8521 45.4336 35.8912 45.4336 35.8912Z" fill="#242826"/>
<path d="M52.143 21.2124H12.6863C12.6863 21.2124 10.8762 30.8351 12.6863 29.719C23.9298 22.7919 45.9426 37.3902 52.1409 29.719C53.4789 28.0656 52.143 21.2124 52.143 21.2124Z" fill="#242826"/>
<path d="M52.0907 24.6803H12.5752C14.8335 16.3891 20.4639 10.6847 32.2557 10.6847C44.6632 10.6825 50.0325 16.3891 52.0907 24.6803Z" fill="#242826"/>
<path d="M52.4391 29.8278H47.668V58.1824H52.4391V29.8278Z" fill="#242826"/>
<path d="M17.4333 58.1846H12.5752V29.8278L17.4333 26.6144V58.1846Z" fill="#242826"/>
<path d="M31.9488 62.1355L27.0385 57.5276L23.1768 58.1237C23.1768 58.1237 26.8514 65.6774 31.9488 62.1355Z" fill="#FDFDFD"/>
<path d="M31.9795 62.1355L36.8898 57.5276L40.7515 58.1237C40.7537 58.1237 37.0791 65.6774 31.9795 62.1355Z" fill="#FDFDFD"/>
<path d="M17.4317 28.0351C17.4317 28.0351 16.8682 11.9531 34.5167 12.6602C44.9857 13.0801 45.4317 26.9604 50.4813 26.1315C50.4813 26.1315 49.0149 30.1498 41.2894 29.3187C33.566 28.4877 23.9302 23.1574 17.4317 28.0351Z" fill="#242826"/>
</svg>
