<svg width="65" height="64" viewBox="0 0 65 64" fill="none" xmlns="http://www.w3.org/2000/svg">
<rect x="0.5" width="64" height="64" rx="32" fill="#E1E3E5"/>
<path d="M35.1387 52.3524H29.3076V59.5177H35.1387V52.3524Z" fill="#FEB6AA"/>
<path d="M35.1387 52.3524V54.9896C33.8712 56.1279 31.9615 56.8513 29.8267 56.8513C29.6516 56.8513 29.4786 56.8451 29.3076 56.8347V52.3524H35.1387Z" fill="#FFAA01"/>
<path d="M51.404 34.1856C51.404 45.5225 39.8106 54.7101 32.4994 54.7101C25.136 54.7101 13.5947 45.5204 13.5947 34.1856C13.5947 22.8507 17.5891 13.659 32.4994 13.659C48.1872 13.659 51.404 22.8486 51.404 34.1856Z" fill="#FEB6AA"/>
<path d="M23.9081 31.3089C20.2118 31.6737 19.5405 34.5924 21.2646 37.7445C22.9908 40.8988 27.3875 39.3665 28.2069 36.4666C29.0262 33.5667 26.7496 31.0274 23.9081 31.3089Z" fill="#FDFDFD"/>
<path d="M26.2103 35.1242C26.2624 36.1019 25.5119 36.9358 24.5363 36.9879C23.5585 37.0401 22.7246 36.2895 22.6725 35.3139C22.6204 34.3361 23.3709 33.5022 24.3466 33.4501C25.3243 33.3959 26.1582 34.1464 26.2103 35.1242Z" fill="#564537"/>
<path d="M24.5926 34.6092C24.6155 35.0262 24.2944 35.3806 23.8775 35.4035C23.4605 35.4265 23.104 35.1054 23.0832 34.6884C23.0603 34.2715 23.3813 33.915 23.7983 33.8942C24.2152 33.8733 24.5696 34.1923 24.5926 34.6092Z" fill="#FDFDFD"/>
<path d="M25.5892 36.1747C25.5996 36.3623 25.4558 36.5207 25.2682 36.5312C25.0805 36.5416 24.9221 36.3977 24.9117 36.2101C24.9012 36.0225 25.0451 35.864 25.2327 35.8536C25.4183 35.8432 25.5788 35.987 25.5892 36.1747Z" fill="#FDFDFD"/>
<path d="M41.6895 31.294C45.3858 31.6589 46.0571 34.5775 44.333 37.7297C42.6068 40.8839 38.21 39.3516 37.3907 36.4517C36.5714 33.5518 38.8479 31.0126 41.6895 31.294Z" fill="#FDFDFD"/>
<path d="M39.3883 35.1094C39.3362 36.0871 40.0867 36.921 41.0624 36.9732C42.0401 37.0253 42.874 36.2748 42.9261 35.2991C42.9783 34.3213 42.2277 33.4874 41.2521 33.4353C40.2743 33.3811 39.4404 34.1316 39.3883 35.1094Z" fill="#564537"/>
<path d="M41.006 34.5944C40.9831 35.0114 41.3042 35.3679 41.7211 35.3887C42.1381 35.4116 42.4925 35.0906 42.5154 34.6757C42.5383 34.2588 42.2173 33.9023 41.8003 33.8814C41.3855 33.8585 41.029 34.1775 41.006 34.5944Z" fill="#FDFDFD"/>
<path d="M40.0093 36.16C39.9989 36.3477 40.1427 36.5061 40.3304 36.5165C40.518 36.5269 40.6764 36.3831 40.6869 36.1955C40.6973 36.0078 40.5534 35.8494 40.3658 35.839C40.1803 35.8285 40.0197 35.9724 40.0093 36.16Z" fill="#FDFDFD"/>
<path d="M23.6065 28.874C23.3938 28.4049 20.348 28.4424 20.1187 30.5481C19.9727 31.8927 21.4196 30.0915 22.1388 29.9789C22.858 29.8663 23.8587 29.4327 23.6065 28.874Z" fill="#564537"/>
<path d="M41.9062 13.2796C41.9062 13.2796 50.3892 28.6297 50.8436 38.5094L51.6129 34.4921C51.6129 34.4921 53.3579 26.8472 51.4065 20.1739C49.8325 14.8015 41.9062 13.2796 41.9062 13.2796Z" fill="#564537"/>
<path d="M22.9137 13.2796C22.9137 13.2796 14.681 28.907 14.2265 38.7846L13.2071 34.49C13.2071 34.49 11.4621 26.8452 13.4135 20.1718C14.9875 14.8015 22.9137 13.2796 22.9137 13.2796Z" fill="#564537"/>
<path d="M16.1973 18.5479C16.1973 18.5479 16.756 9.93779 26.3542 9.75641C35.9525 9.57504 50.8586 12.846 50.377 30.3643C50.377 30.3643 48.4986 31.3983 43.0365 28.7403C43.0365 28.7403 43.2262 29.6034 44.1331 30.602C44.1331 30.602 40.0365 30.4665 37.3263 27.3497C37.3263 27.3497 37.466 28.6882 37.9893 29.5867C37.9893 29.5867 23.9463 27.921 16.1973 18.5479Z" fill="#564537"/>
<path d="M15.1318 17.2617C15.1318 17.2617 17.1707 8.18878 26.769 8.00741C36.3672 7.82603 49.7931 10.874 49.3115 28.3943C49.3115 28.3943 47.4332 29.4284 41.9711 26.7703C41.9711 26.7703 42.1608 27.6334 43.0677 28.632C43.0677 28.632 38.9711 28.4965 36.2609 25.3797C36.2609 25.3797 36.4006 26.7182 36.9239 27.6167C36.9218 27.6146 22.8809 26.6348 15.1318 17.2617Z" fill="#564537"/>
<path d="M32.3624 46.9154C30.0546 46.9154 27.9448 46.2754 26.3291 45.2185C27.0796 48.1392 29.5459 50.2823 32.4771 50.2823C35.4687 50.2823 37.9788 48.0475 38.6709 45.0308C37.0239 46.1983 34.8037 46.9154 32.3624 46.9154Z" fill="#FDFDFD"/>
<path d="M24.3696 41.3135C24.3696 42.3267 23.2542 43.1481 21.8762 43.1481C20.5003 43.1481 19.3828 42.3267 19.3828 41.3135C19.3828 40.3003 20.4982 39.4789 21.8762 39.4789C23.2542 39.4789 24.3696 40.3003 24.3696 41.3135Z" fill="#FFAA01"/>
<path d="M45.4213 41.3135C45.4213 42.3267 44.306 43.1481 42.9279 43.1481C41.552 43.1481 40.4346 42.3267 40.4346 41.3135C40.4346 40.3003 41.5499 39.4789 42.9279 39.4789C44.3039 39.4789 45.4213 40.3003 45.4213 41.3135Z" fill="#FFAA01"/>
<path d="M18.2338 39.7227C18.2338 41.4864 16.7265 42.9145 14.8669 42.9145C13.0073 42.9145 11.5 41.4843 11.5 39.7227C11.5 37.959 13.0073 36.5309 14.8669 36.5309C16.7265 36.5309 18.2338 37.959 18.2338 39.7227Z" fill="#FEB6AA"/>
<path d="M14.6213 39.1686C13.7165 38.3159 12.4969 39.1853 13.0514 40.3527C13.606 41.5202 14.3565 41.664 14.7756 41.3201C15.1946 40.9761 14.0084 40.8906 14.0584 40.2631C14.1084 39.6377 15.2801 39.7899 14.6213 39.1686Z" fill="#FFAA01"/>
<path d="M31.2826 39.4934C30.653 39.9833 30.6343 42.4954 32.3229 42.5663C34.0116 42.6372 34.637 41.8575 34.4953 41.1612C34.3535 40.4649 33.5717 42.5705 32.0665 41.3113C31.4348 40.7859 32.2166 38.7658 31.2826 39.4934Z" fill="#FFAA01"/>
<path d="M47.0205 39.7227C47.0205 41.4864 48.5278 42.9145 50.3874 42.9145C52.247 42.9145 53.7543 41.4843 53.7543 39.7227C53.7543 37.959 52.247 36.5309 50.3874 36.5309C48.5278 36.5309 47.0205 37.959 47.0205 39.7227Z" fill="#FEB6AA"/>
<path d="M50.6328 39.1686C51.5375 38.3159 52.7571 39.1853 52.2026 40.3527C51.648 41.5202 50.8975 41.664 50.4785 41.3201C50.0594 40.9761 51.2457 40.8906 51.1956 40.2631C51.1456 39.6377 49.974 39.7899 50.6328 39.1686Z" fill="#FFAA01"/>
<path d="M32.0954 57.7416V64.0001H32.0724V62.2155C29.2163 62.2072 26.7605 60.5039 25.6514 58.0606L29.306 57.4956L32.0829 57.7395L32.0954 57.7416Z" fill="#FEB6AA"/>
<path d="M38.535 58.0625C37.4239 60.5121 34.9597 62.2132 32.0952 62.2132V63.9978H32.0723V57.7393L32.0827 57.7373L34.8596 57.4933L35.139 57.5371L38.535 58.0625Z" fill="#FEB6AA"/>
<path d="M48.2567 62.007C47.552 60.7623 46.493 59.5511 45.0503 59.0695L38.5354 58.0626C37.4263 60.5059 34.9705 62.205 32.1144 62.2133H32.0539C29.2061 62.1967 26.7586 60.4976 25.6516 58.0584L19.1159 59.0695C17.6732 59.5511 16.6121 60.7623 15.9095 62.007C15.5196 62.6991 15.2403 63.4037 15.0693 64H31.9997H32.0727H32.0956H32.2645H49.0989C48.928 63.4037 48.6465 62.6991 48.2567 62.007Z" fill="#FFAA01"/>
</svg>
